<?xml version="1.0" encoding="utf-8"?>
<!-- Generator: Adobe Illustrator 27.5.0, SVG Export Plug-In . SVG Version: 6.00 Build 0)  -->
<svg version="1.1" xmlns="http://www.w3.org/2000/svg" xmlns:xlink="http://www.w3.org/1999/xlink" x="0px" y="0px"
	 viewBox="0 0 500 500" style="enable-background:new 0 0 500 500;" xml:space="preserve">
<g id="Floor">
	
		<line style="fill:none;stroke:#263238;stroke-width:2.5;stroke-linecap:round;stroke-linejoin:round;stroke-miterlimit:10;" x1="46.313" y1="447.704" x2="453.687" y2="447.704"/>
</g>
<g id="Shadow">
	<ellipse style="fill:#263238;" cx="273.684" cy="463.223" rx="131.144" ry="9.087"/>
</g>
<g id="Groceries">
	<g>
		<g>
			
				<rect x="276.227" y="232.812" style="fill:#9ABAE3;stroke:#263238;stroke-width:2.5;stroke-linecap:round;stroke-linejoin:round;stroke-miterlimit:10;" width="97.051" height="118.779"/>
			
				<ellipse transform="matrix(0.9788 -0.2047 0.2047 0.9788 -53.1761 70.2801)" style="fill:#FFFFFF;stroke:#263238;stroke-width:2.5;stroke-linecap:round;stroke-linejoin:round;stroke-miterlimit:10;" cx="313.156" cy="292.201" rx="28.709" ry="16.152"/>
			
				<rect x="276.227" y="242.645" style="fill:#EC644E;stroke:#263238;stroke-width:2.5;stroke-linecap:round;stroke-linejoin:round;stroke-miterlimit:10;" width="97.051" height="10.031"/>
			
				<rect x="276.227" y="329.605" style="fill:#EC644E;stroke:#263238;stroke-width:2.5;stroke-linecap:round;stroke-linejoin:round;stroke-miterlimit:10;" width="97.051" height="10.031"/>
			
				<line style="fill:none;stroke:#263238;stroke-width:2.5;stroke-linecap:round;stroke-linejoin:round;stroke-miterlimit:10;" x1="349.412" y1="351.591" x2="349.412" y2="232.812"/>
		</g>
		<g>
			
				<rect x="358.524" y="227.395" style="fill:#9ABAE3;stroke:#263238;stroke-width:2.5;stroke-linecap:round;stroke-linejoin:round;stroke-miterlimit:10;" width="24.327" height="10.832"/>
			
				<path style="fill:#FFFFFF;stroke:#263238;stroke-width:2.5;stroke-linecap:round;stroke-linejoin:round;stroke-miterlimit:10;" d="
				M396.615,300.699v50.891h-51.854v-50.891c0-3.638,0.481-7.258,1.425-10.771l15.651-42.69v-9.01h17.702v9.01l15.651,42.69
				C396.134,293.441,396.615,297.061,396.615,300.699z"/>
			
				<rect x="344.761" y="311.901" style="fill:#9ABAE3;stroke:#263238;stroke-width:2.5;stroke-linecap:round;stroke-linejoin:round;stroke-miterlimit:10;" width="51.854" height="26.035"/>
		</g>
		<g>
			
				<rect x="161.801" y="268.423" style="fill:#9ABAE3;stroke:#263238;stroke-width:2.5;stroke-linecap:round;stroke-linejoin:round;stroke-miterlimit:10;" width="37.8" height="83.168"/>
			
				<rect x="199.601" y="268.423" style="fill:#9ABAE3;stroke:#263238;stroke-width:2.5;stroke-linecap:round;stroke-linejoin:round;stroke-miterlimit:10;" width="20.706" height="83.168"/>
			
				<polygon style="fill:#9ABAE3;stroke:#263238;stroke-width:2.5;stroke-linecap:round;stroke-linejoin:round;stroke-miterlimit:10;" points="
				209.954,254.605 172.153,254.605 161.801,268.423 199.601,268.423 			"/>
			
				<polygon style="fill:#9ABAE3;stroke:#263238;stroke-width:2.5;stroke-linecap:round;stroke-linejoin:round;stroke-miterlimit:10;" points="
				220.307,268.423 209.954,254.605 199.601,268.423 			"/>
			
				<rect x="172.153" y="248.322" style="fill:#9ABAE3;stroke:#263238;stroke-width:2.5;stroke-linecap:round;stroke-linejoin:round;stroke-miterlimit:10;" width="37.801" height="6.283"/>
			<g>
				
					<path style="fill:#FFFFFF;stroke:#263238;stroke-width:2.5;stroke-linecap:round;stroke-linejoin:round;stroke-miterlimit:10;" d="
					M161.801,351.591v-34.72c0,0,7.463,4.713,19.494,4.589c12.031-0.124,17.139-9.386,18.306-11.453
					c1.167-2.067,7.133-10.711,12.082-8.54c2.977,1.305,1.007,5.853-1.729,6.473c-2.736,0.62-5.341,5.582-4.473,8.682
					c0.868,3.101,4.968,7.318,14.825,3.597v31.371H161.801z"/>
				
					<path style="fill:#FFFFFF;stroke:#263238;stroke-width:2.5;stroke-linecap:round;stroke-linejoin:round;stroke-miterlimit:10;" d="
					M213.605,311.66c-2.518-0.44-3.882,3.264-1.052,4.208C215.279,316.776,216.618,312.186,213.605,311.66z"/>
				
					<line style="fill:none;stroke:#263238;stroke-width:2.5;stroke-linecap:round;stroke-linejoin:round;stroke-miterlimit:10;" x1="199.601" y1="310.007" x2="199.601" y2="342.659"/>
			</g>
			<g>
				<path style="fill:#FFFFFF;" d="M177.912,282.409h-2.215v-4.083c0-0.479-0.088-0.828-0.263-1.045
					c-0.175-0.217-0.401-0.325-0.678-0.325c-0.148,0-0.298,0.032-0.45,0.097c-0.152,0.065-0.293,0.154-0.422,0.27
					c-0.129,0.116-0.247,0.251-0.353,0.408c-0.106,0.157-0.192,0.328-0.256,0.512v4.166h-2.215v-4.083
					c0-0.479-0.088-0.828-0.263-1.045c-0.175-0.217-0.401-0.325-0.678-0.325c-0.295,0-0.584,0.118-0.865,0.353
					c-0.282,0.235-0.487,0.547-0.616,0.934v4.166h-2.215v-7.267h1.993v1.218c0.268-0.443,0.63-0.78,1.087-1.011
					c0.457-0.23,0.99-0.346,1.599-0.346c0.305,0,0.57,0.037,0.796,0.111c0.226,0.074,0.422,0.176,0.588,0.304
					c0.166,0.13,0.3,0.279,0.401,0.45c0.102,0.171,0.175,0.353,0.222,0.547c0.277-0.452,0.641-0.8,1.093-1.045
					c0.452-0.244,0.969-0.367,1.55-0.367c0.461,0,0.833,0.085,1.114,0.256c0.281,0.171,0.5,0.392,0.657,0.664
					c0.157,0.272,0.261,0.57,0.311,0.893c0.051,0.323,0.076,0.637,0.076,0.941V282.409z"/>
				<path style="fill:#FFFFFF;" d="M179.365,274.311v-2.007h2.215v2.007H179.365z M179.365,282.409v-7.267h2.215v7.267H179.365z"/>
				<path style="fill:#FFFFFF;" d="M183.075,272.304h2.214v7.516c0,0.554,0.235,0.83,0.706,0.83c0.111,0,0.233-0.016,0.367-0.048
					c0.133-0.032,0.256-0.081,0.367-0.145l0.291,1.661c-0.277,0.129-0.595,0.231-0.955,0.304c-0.36,0.074-0.697,0.111-1.01,0.111
					c-0.637,0-1.126-0.166-1.467-0.498c-0.342-0.332-0.512-0.812-0.512-1.44V272.304z"/>
				<path style="fill:#FFFFFF;" d="M192.625,282.409l-1.896-2.921l-0.775,0.803v2.118h-2.215v-10.104h2.215v5.855l2.45-3.017h2.353
					l-2.616,3.128l2.837,4.139H192.625z"/>
			</g>
			<g>
				
					<line style="fill:none;stroke:#263238;stroke-width:2.5;stroke-linecap:round;stroke-linejoin:round;stroke-miterlimit:10;" x1="203.992" y1="273.156" x2="216.061" y2="273.156"/>
				
					<line style="fill:none;stroke:#263238;stroke-width:2.5;stroke-linecap:round;stroke-linejoin:round;stroke-miterlimit:10;" x1="203.992" y1="276.395" x2="216.061" y2="276.395"/>
				
					<line style="fill:none;stroke:#263238;stroke-width:2.5;stroke-linecap:round;stroke-linejoin:round;stroke-miterlimit:10;" x1="203.992" y1="279.633" x2="213.148" y2="279.633"/>
				
					<line style="fill:none;stroke:#263238;stroke-width:2.5;stroke-linecap:round;stroke-linejoin:round;stroke-miterlimit:10;" x1="203.992" y1="286.104" x2="216.061" y2="286.104"/>
				
					<line style="fill:none;stroke:#263238;stroke-width:2.5;stroke-linecap:round;stroke-linejoin:round;stroke-miterlimit:10;" x1="203.992" y1="289.342" x2="213.148" y2="289.342"/>
			</g>
		</g>
		<g>
			
				<rect x="203.156" y="270.401" transform="matrix(-1.836970e-16 1 -1 -1.836970e-16 534.041 89.9282)" style="fill:#9ABAE3;stroke:#263238;stroke-width:2.5;stroke-linecap:round;stroke-linejoin:round;stroke-miterlimit:10;" width="37.8" height="83.168"/>
			
				<rect x="211.704" y="299.654" transform="matrix(-1.836970e-16 1 -1 -1.836970e-16 563.2941 119.1813)" style="fill:#9ABAE3;stroke:#263238;stroke-width:2.5;stroke-linecap:round;stroke-linejoin:round;stroke-miterlimit:10;" width="20.706" height="83.168"/>
			
				<polygon style="fill:#9ABAE3;stroke:#263238;stroke-width:2.5;stroke-linecap:round;stroke-linejoin:round;stroke-miterlimit:10;" points="
				277.458,341.238 277.458,303.437 263.64,293.084 263.64,330.885 			"/>
			
				<polygon style="fill:#9ABAE3;stroke:#263238;stroke-width:2.5;stroke-linecap:round;stroke-linejoin:round;stroke-miterlimit:10;" points="
				263.64,351.591 277.458,341.238 263.64,330.885 			"/>
			
				<rect x="261.699" y="319.196" transform="matrix(-1.836970e-16 1 -1 -1.836970e-16 602.9369 41.7378)" style="fill:#9ABAE3;stroke:#263238;stroke-width:2.5;stroke-linecap:round;stroke-linejoin:round;stroke-miterlimit:10;" width="37.8" height="6.283"/>
			<g>
				
					<path style="fill:#FFFFFF;stroke:#263238;stroke-width:2.5;stroke-linecap:round;stroke-linejoin:round;stroke-miterlimit:10;" d="
					M180.473,293.084h34.72c0,0-4.713,7.463-4.589,19.494c0.124,12.031,9.386,17.139,11.453,18.306
					c2.067,1.167,10.711,7.132,8.54,12.082c-1.305,2.977-5.853,1.007-6.473-1.729c-0.62-2.736-5.581-5.341-8.682-4.473
					s-7.318,4.968-3.597,14.825h-31.371V293.084z"/>
				
					<path style="fill:#FFFFFF;stroke:#263238;stroke-width:2.5;stroke-linecap:round;stroke-linejoin:round;stroke-miterlimit:10;" d="
					M220.403,344.889c0.44-2.518-3.264-3.882-4.208-1.052C215.287,346.563,219.877,347.901,220.403,344.889z"/>
				
					<line style="fill:none;stroke:#263238;stroke-width:2.5;stroke-linecap:round;stroke-linejoin:round;stroke-miterlimit:10;" x1="222.056" y1="330.885" x2="189.405" y2="330.885"/>
			</g>
			<g>
				<path style="fill:#FFFFFF;" d="M249.655,309.196v-2.215h4.083c0.479,0,0.828-0.088,1.045-0.263
					c0.216-0.175,0.325-0.401,0.325-0.678c0-0.148-0.032-0.298-0.097-0.45c-0.065-0.152-0.155-0.293-0.27-0.422
					c-0.115-0.129-0.251-0.247-0.408-0.353c-0.157-0.106-0.328-0.192-0.512-0.256h-4.166v-2.215h4.083
					c0.479,0,0.828-0.088,1.045-0.263c0.216-0.175,0.325-0.401,0.325-0.678c0-0.295-0.118-0.584-0.353-0.865
					c-0.235-0.282-0.547-0.487-0.934-0.616h-4.166v-2.215h7.267v1.993h-1.218c0.443,0.267,0.78,0.63,1.011,1.087
					c0.23,0.457,0.346,0.99,0.346,1.599c0,0.304-0.037,0.57-0.111,0.796c-0.074,0.226-0.175,0.422-0.304,0.588
					c-0.13,0.166-0.279,0.299-0.45,0.401c-0.171,0.102-0.353,0.175-0.547,0.222c0.452,0.277,0.8,0.641,1.045,1.094
					c0.245,0.452,0.367,0.969,0.367,1.55c0,0.461-0.085,0.833-0.256,1.114c-0.171,0.281-0.392,0.5-0.664,0.657
					c-0.272,0.157-0.57,0.261-0.893,0.311c-0.323,0.051-0.637,0.076-0.941,0.076H249.655z"/>
				<path style="fill:#FFFFFF;" d="M257.752,310.649h2.007v2.215h-2.007V310.649z M249.655,310.649h7.267v2.215h-7.267V310.649z"/>
				<path style="fill:#FFFFFF;" d="M259.759,314.358v2.215h-7.516c-0.554,0-0.83,0.235-0.83,0.706c0,0.111,0.016,0.233,0.048,0.367
					c0.032,0.133,0.081,0.256,0.145,0.367l-1.661,0.291c-0.129-0.277-0.231-0.595-0.304-0.955c-0.074-0.36-0.111-0.697-0.111-1.01
					c0-0.637,0.166-1.126,0.498-1.467c0.332-0.342,0.812-0.512,1.44-0.512H259.759z"/>
				<path style="fill:#FFFFFF;" d="M249.655,323.909l2.921-1.896l-0.803-0.775h-2.118v-2.215h10.104v2.215h-5.855l3.017,2.45v2.353
					l-3.128-2.616l-4.138,2.838V323.909z"/>
			</g>
			<g>
				
					<line style="fill:none;stroke:#263238;stroke-width:2.5;stroke-linecap:round;stroke-linejoin:round;stroke-miterlimit:10;" x1="258.907" y1="335.275" x2="258.907" y2="347.345"/>
				
					<line style="fill:none;stroke:#263238;stroke-width:2.5;stroke-linecap:round;stroke-linejoin:round;stroke-miterlimit:10;" x1="255.668" y1="335.275" x2="255.668" y2="347.345"/>
				
					<line style="fill:none;stroke:#263238;stroke-width:2.5;stroke-linecap:round;stroke-linejoin:round;stroke-miterlimit:10;" x1="252.43" y1="335.275" x2="252.43" y2="344.432"/>
				
					<line style="fill:none;stroke:#263238;stroke-width:2.5;stroke-linecap:round;stroke-linejoin:round;stroke-miterlimit:10;" x1="245.959" y1="335.275" x2="245.959" y2="347.345"/>
				
					<line style="fill:none;stroke:#263238;stroke-width:2.5;stroke-linecap:round;stroke-linejoin:round;stroke-miterlimit:10;" x1="242.721" y1="335.275" x2="242.721" y2="344.432"/>
			</g>
		</g>
		<g>
			<path style="fill:#EC644E;" d="M304.111,351.591l44.857-0.052c9.174-14.238-3.286-24.502-3.286-24.502s3.651-3.066,3.743-8.206
				c0.205-11.362-10.594-18.365-10.594-18.365s5.039-1.882,5.327-7.32c0.476-8.879-6.937-16.492-6.937-16.492l-21.537,0.025
				c0,0-7.395,7.63-6.898,16.508c0.301,5.437,5.344,7.308,5.344,7.308s-10.783,7.028-10.551,18.389
				c0.104,5.139,3.762,8.197,3.762,8.197S294.904,337.374,304.111,351.591z"/>
			<path style="fill:#FFFFFF;" d="M334.481,300.472c0,0,10.799,7.003,10.594,18.365c-0.092,5.139-3.744,8.206-3.744,8.206
				s12.461,10.264,3.287,24.502l4.35-0.005c9.174-14.238-3.286-24.502-3.286-24.502s3.651-3.066,3.743-8.206
				c0.205-11.362-10.594-18.365-10.594-18.365s5.039-1.882,5.327-7.32c0.476-8.879-6.937-16.492-6.937-16.492l-4.35,0.005
				c0,0,7.412,7.613,6.937,16.492C339.52,298.589,334.481,300.472,334.481,300.472z"/>
			<path style="fill:none;stroke:#263238;stroke-width:2.5;stroke-linecap:round;stroke-linejoin:round;stroke-miterlimit:10;" d="
				M304.111,351.591l44.857-0.052c9.174-14.238-3.286-24.502-3.286-24.502s3.651-3.066,3.743-8.206
				c0.205-11.362-10.594-18.365-10.594-18.365s5.039-1.882,5.327-7.32c0.476-8.879-6.937-16.492-6.937-16.492l-21.537,0.025
				c0,0-7.395,7.63-6.898,16.508c0.301,5.437,5.344,7.308,5.344,7.308s-10.783,7.028-10.551,18.389
				c0.104,5.139,3.762,8.197,3.762,8.197S294.904,337.374,304.111,351.591z"/>
			
				<path style="fill:#EC644E;stroke:#263238;stroke-width:2.5;stroke-linecap:round;stroke-linejoin:round;stroke-miterlimit:10;" d="
				M337.386,276.845c0.964,1.064,4.811,5.561,6.217,11.296c2.379-0.966,4.052-3.298,4.049-6.026
				c-0.004-3.584-2.914-6.491-6.502-6.487C339.747,275.63,338.446,276.077,337.386,276.845z"/>
			
				<path style="fill:#EC644E;stroke:#263238;stroke-width:2.5;stroke-linecap:round;stroke-linejoin:round;stroke-miterlimit:10;" d="
				M315.521,276.87c-0.962,1.066-4.799,5.573-6.191,11.31c-2.381-0.96-4.06-3.289-4.063-6.017c-0.004-3.583,2.899-6.497,6.487-6.501
				C313.157,275.661,314.459,276.105,315.521,276.87z"/>
			<path style="fill:none;stroke:#263238;stroke-width:2.5;stroke-linecap:round;stroke-linejoin:round;stroke-miterlimit:10;" d="
				M339.865,311.976c0.002,1.482,0.814,2.961-6.461,9.947c-7.255,6.966,2.193,16.837,13.542,3.731"/>
			<g>
				<path style="fill:none;stroke:#263238;stroke-width:2.5;stroke-linecap:round;stroke-linejoin:round;stroke-miterlimit:10;" d="
					M346.745,331.385c0,0-6.173,2.181-7.253,8.457"/>
				<path style="fill:none;stroke:#263238;stroke-width:2.5;stroke-linecap:round;stroke-linejoin:round;stroke-miterlimit:10;" d="
					M330.285,351.562c-1.454-2.568-4.771-15.435,2.698-16.703c6.156-1.045,7.699,8.538,7.376,12.788"/>
			</g>
			<path style="fill:none;stroke:#263238;stroke-width:2.5;stroke-linecap:round;stroke-linejoin:round;stroke-miterlimit:10;" d="
				M313.123,312.007c0.002,1.482-0.807,2.963,6.484,9.932c7.271,6.949-2.154,16.842-13.533,3.762"/>
			<g>
				<path style="fill:none;stroke:#263238;stroke-width:2.5;stroke-linecap:round;stroke-linejoin:round;stroke-miterlimit:10;" d="
					M306.288,331.432c0,0,6.178,2.167,7.272,8.44"/>
				<path style="fill:none;stroke:#263238;stroke-width:2.5;stroke-linecap:round;stroke-linejoin:round;stroke-miterlimit:10;" d="
					M322.795,351.571c1.449-2.571,4.736-15.446-2.737-16.696c-6.158-1.03-7.679,8.556-7.347,12.805"/>
			</g>
			<g>
				<path style="fill:none;stroke:#263238;stroke-width:2.5;stroke-linecap:round;stroke-linejoin:round;stroke-miterlimit:10;" d="
					M321.099,291.467c0.007,1.859,1.19,3.556,5.375,3.551c4.185-0.005,5.365-1.704,5.367-3.563c0.006-2.237-2.519-4.369-5.376-4.366
					C323.608,287.093,321.088,289.23,321.099,291.467z"/>
				<path style="fill:#263238;" d="M334.59,286.376c1.721-0.002,1.727,2.672,0.003,2.674
					C332.872,289.052,332.866,286.378,334.59,286.376z"/>
				<path style="fill:#263238;" d="M318.339,286.395c1.721-0.002,1.727,2.672,0.003,2.674
					C316.621,289.071,316.615,286.397,318.339,286.395z"/>
				<path style="fill:#263238;" d="M323.422,287.939c0.001,0.526,0.996,2.117,3.047,2.115c2.05-0.002,3.042-1.596,3.042-2.122
					c-0.001-0.526-1.12-1.18-3.046-1.178C324.539,286.757,323.421,287.413,323.422,287.939z"/>
				
					<line style="fill:none;stroke:#263238;stroke-width:2.5;stroke-linecap:round;stroke-linejoin:round;stroke-miterlimit:10;" x1="326.468" y1="289.634" x2="326.472" y2="292.82"/>
			</g>
			<g>
				
					<polygon style="fill:#FFFFFF;stroke:#263238;stroke-width:2.5;stroke-linecap:round;stroke-linejoin:round;stroke-miterlimit:10;" points="
					323.582,256.499 329.278,256.493 331.524,271.748 321.371,271.759 				"/>
				<g>
					
						<rect x="315.747" y="271.754" transform="matrix(-1 0.0012 -0.0012 -1 653.2168 548.0431)" style="fill:#FFFFFF;stroke:#263238;stroke-width:2.5;stroke-linecap:round;stroke-linejoin:round;stroke-miterlimit:10;" width="21.407" height="4.913"/>
				</g>
			</g>
			
				<line style="fill:none;stroke:#263238;stroke-width:2.5;stroke-linecap:round;stroke-linejoin:round;stroke-miterlimit:10;" x1="338.832" y1="300.467" x2="325.221" y2="300.482"/>
		</g>
		<g>
			
				<path style="fill:#FFFFFF;stroke:#263238;stroke-width:2.5;stroke-linecap:round;stroke-linejoin:round;stroke-miterlimit:10;" d="
				M218.715,378.107v19.925c0,1.534-1.244,2.778-2.778,2.778H174.17c-1.534,0-2.768-1.244-2.768-2.778v-19.925
				c0-1.534,1.234-2.778,2.768-2.778h0.954v-4.561h39.859v4.561h0.954C217.471,375.329,218.715,376.573,218.715,378.107z"/>
			
				<rect x="171.399" y="364.624" style="fill:#EC644E;stroke:#263238;stroke-width:2.5;stroke-linecap:round;stroke-linejoin:round;stroke-miterlimit:10;" width="47.316" height="6.148"/>
			
				<line style="fill:none;stroke:#263238;stroke-width:2.5;stroke-linecap:round;stroke-linejoin:round;stroke-miterlimit:10;" x1="175.124" y1="375.329" x2="199.168" y2="375.329"/>
			
				<path style="fill:#EC644E;stroke:#263238;stroke-width:2.5;stroke-linecap:round;stroke-linejoin:round;stroke-miterlimit:10;" d="
				M210.871,388.319c0,2.57-7.08,4.654-15.814,4.654s-15.814-2.084-15.814-4.654c0-2.57,7.08-4.654,15.814-4.654
				S210.871,385.749,210.871,388.319z"/>
		</g>
		<g>
			
				<rect x="226.744" y="382.331" style="fill:#FFFFFF;stroke:#263238;stroke-width:2.5;stroke-linecap:round;stroke-linejoin:round;stroke-miterlimit:10;" width="124.054" height="3.207"/>
			
				<rect x="226.744" y="379.125" style="fill:#FFFFFF;stroke:#263238;stroke-width:2.5;stroke-linecap:round;stroke-linejoin:round;stroke-miterlimit:10;" width="124.054" height="3.207"/>
			<g>
				
					<path style="fill:#FFFFFF;stroke:#263238;stroke-width:2.5;stroke-linecap:round;stroke-linejoin:round;stroke-miterlimit:10;" d="
					M247.316,385.538c0,8.107-1.921,10.815-3.536,13.093c-0.964,1.364-2.521,2.179-4.193,2.179h-3.171
					c-1.672,0-3.236-0.814-4.2-2.179c-1.607-2.279-3.536-4.986-3.536-13.093H247.316z"/>
				
					<path style="fill:#FFFFFF;stroke:#263238;stroke-width:2.5;stroke-linecap:round;stroke-linejoin:round;stroke-miterlimit:10;" d="
					M267.625,385.538c0,8.107-1.922,10.815-3.536,13.093c-0.964,1.364-2.522,2.179-4.193,2.179h-3.172
					c-1.672,0-3.236-0.814-4.2-2.179c-1.607-2.279-3.536-4.986-3.536-13.093H267.625z"/>
				
					<path style="fill:#FFFFFF;stroke:#263238;stroke-width:2.5;stroke-linecap:round;stroke-linejoin:round;stroke-miterlimit:10;" d="
					M287.935,385.538c0,8.107-1.922,10.815-3.536,13.093c-0.964,1.364-2.521,2.179-4.193,2.179h-3.172
					c-1.671,0-3.236-0.814-4.2-2.179c-1.607-2.279-3.536-4.986-3.536-13.093H287.935z"/>
				
					<path style="fill:#FFFFFF;stroke:#263238;stroke-width:2.5;stroke-linecap:round;stroke-linejoin:round;stroke-miterlimit:10;" d="
					M308.244,385.538c0,8.107-1.921,10.815-3.536,13.093c-0.964,1.364-2.521,2.179-4.193,2.179h-3.172
					c-1.672,0-3.236-0.814-4.2-2.179c-1.607-2.279-3.536-4.986-3.536-13.093H308.244z"/>
				
					<path style="fill:#FFFFFF;stroke:#263238;stroke-width:2.5;stroke-linecap:round;stroke-linejoin:round;stroke-miterlimit:10;" d="
					M328.553,385.538c0,8.107-1.922,10.815-3.536,13.093c-0.964,1.364-2.522,2.179-4.193,2.179h-3.172
					c-1.672,0-3.236-0.814-4.2-2.179c-1.607-2.279-3.536-4.986-3.536-13.093H328.553z"/>
				
					<path style="fill:#FFFFFF;stroke:#263238;stroke-width:2.5;stroke-linecap:round;stroke-linejoin:round;stroke-miterlimit:10;" d="
					M348.863,385.538c0,8.107-1.922,10.815-3.536,13.093c-0.964,1.364-2.522,2.179-4.193,2.179h-3.172
					c-1.672,0-3.236-0.814-4.2-2.179c-1.607-2.279-3.536-4.986-3.536-13.093H348.863z"/>
			</g>
			<g>
				
					<path style="fill:#FFFFFF;stroke:#263238;stroke-width:2.5;stroke-linecap:round;stroke-linejoin:round;stroke-miterlimit:10;" d="
					M330.227,379.125c0-5.667,1.922-8.259,3.536-9.851c0.964-0.954,2.522-1.523,4.193-1.523h3.172c1.671,0,3.236,0.569,4.2,1.523
					c1.607,1.593,3.536,4.184,3.536,9.851H330.227z"/>
				
					<path style="fill:#FFFFFF;stroke:#263238;stroke-width:2.5;stroke-linecap:round;stroke-linejoin:round;stroke-miterlimit:10;" d="
					M228.679,379.125c0-5.667,1.922-8.259,3.536-9.851c0.964-0.954,2.521-1.523,4.193-1.523h3.172c1.671,0,3.236,0.569,4.2,1.523
					c1.607,1.593,3.536,4.184,3.536,9.851H228.679z"/>
			</g>
			
				<path style="fill:#FFFFFF;stroke:#263238;stroke-width:2.5;stroke-linecap:round;stroke-linejoin:round;stroke-miterlimit:10;" d="
				M338.506,365.624h-99.47c-1.339,0-2.493,0.973-2.762,2.329l-2.222,11.172H343.49l-2.222-11.172
				C340.999,366.597,339.845,365.624,338.506,365.624z"/>
		</g>
	</g>
</g>
<g id="Shopping_cart">
	<g>
		<g>
			<path style="fill:#EC644E;" d="M106.19,196.995h151.803c0.111,0,0.224,0.004,0.335,0.011l175.863,12.267
				c2.755,0.185,4.839,2.568,4.654,5.323c-0.185,2.755-2.572,4.84-5.323,4.654l-175.697-12.256H106.19c-2.762,0-5-2.239-5-5
				C101.19,199.234,103.429,196.995,106.19,196.995z"/>
			<path style="fill:#FFFFFF;" d="M438.85,214.6c-0.04,0.51-0.15,1-0.32,1.46c-0.67-1.77-2.32-3.07-4.34-3.21l-175.86-12.27
				c-0.11,0-0.23-0.01-0.34-0.01h-151.8c-2.13,0-3.95,1.33-4.67,3.21c-0.21-0.55-0.33-1.16-0.33-1.79c0-2.76,2.24-5,5-5h151.8
				c0.11,0,0.23,0.01,0.34,0.02l175.86,12.26C436.95,209.46,439.03,211.84,438.85,214.6z"/>
			<path style="fill:none;stroke:#263238;stroke-width:2.5;stroke-linecap:round;stroke-linejoin:round;stroke-miterlimit:10;" d="
				M106.19,196.995h151.803c0.111,0,0.224,0.004,0.335,0.011l175.863,12.267c2.755,0.185,4.839,2.568,4.654,5.323
				c-0.185,2.755-2.572,4.84-5.323,4.654l-175.697-12.256H106.19c-2.762,0-5-2.239-5-5
				C101.19,199.234,103.429,196.995,106.19,196.995z"/>
		</g>
		
			<path style="fill:#EC644E;stroke:#263238;stroke-width:2.5;stroke-linecap:round;stroke-linejoin:round;stroke-miterlimit:10;" d="
			M295.258,399.444h24.275c0,0,0.554,46.327-12.138,46.327C294.704,445.771,295.258,399.444,295.258,399.444z"/>
		
			<path style="fill:#EC644E;stroke:#263238;stroke-width:2.5;stroke-linecap:round;stroke-linejoin:round;stroke-miterlimit:10;" d="
			M365.513,399.444h24.275c0,0,0.554,46.327-12.138,46.327C364.959,445.771,365.513,399.444,365.513,399.444z"/>
		
			<path style="fill:#EC644E;stroke:#263238;stroke-width:2.5;stroke-linecap:round;stroke-linejoin:round;stroke-miterlimit:10;" d="
			M179.717,399.444h24.275c0,0,0.554,46.327-12.138,46.327S179.717,399.444,179.717,399.444z"/>
		<g>
			<g>
				<path style="fill:#EC644E;" d="M393.318,410.806H168.141c-7.015,0-13.059-4.764-14.697-11.584l-53.62-223.107
					c-1.311-5.453-4.247-10.273-8.492-13.939l-26.021-22.472c-2.894-2.499-3.902-6.43-2.569-10.014c1.333-3.584,4.665-5.9,8.49-5.9
					h118.112c9.389,0,18.369,2.915,25.968,8.429l28.623,20.77c2.576,1.869,4.795,3.931,6.596,6.131
					c1.766,2.155,3.286,4.516,4.519,7.015c1.632,3.311,2.721,7.064,3.238,11.159l27.704,219.816
					c0.629,2.188,2.618,3.697,4.915,3.697h102.411c2.762,0,5,2.238,5,5C398.318,408.568,396.079,410.806,393.318,410.806z
					 M73.763,133.789l24.105,20.818c5.838,5.042,9.876,11.671,11.679,19.171l53.62,223.108c0.555,2.308,2.601,3.92,4.975,3.92
					h108.54c-0.184-0.514-0.342-1.042-0.472-1.584c-0.043-0.179-0.076-0.36-0.1-0.543l-27.744-220.136
					c-0.376-2.988-1.145-5.675-2.285-7.986c-0.896-1.817-2.003-3.534-3.286-5.102c-1.259-1.537-2.851-3.008-4.733-4.373
					l-28.623-20.77c-5.88-4.268-12.829-6.523-20.095-6.523H73.763z M270.019,400.806h36.015"/>
			</g>
			<g>
				<g>
					<path style="fill:none;" d="M393.313,400.81h-102.41c-2.29,0-4.28-1.51-4.91-3.7l-27.71-219.82c-0.51-4.09-1.6-7.85-3.23-11.16
						c-1.24-2.5-2.76-4.86-4.52-7.01c-1.8-2.2-4.02-4.26-6.6-6.13l-28.62-20.77c-7.6-5.52-16.58-8.43-25.97-8.43H71.233
						c-2.82,0-5.37,1.26-7.05,3.36c0.89-0.29,1.83-0.44,2.8-0.44h118.11c9.39,0,18.37,2.92,25.97,8.43l28.62,20.77
						c2.58,1.87,4.8,3.93,6.6,6.13c1.76,2.16,3.28,4.52,4.52,7.02c1.63,3.31,2.72,7.06,3.23,11.16l27.71,219.81
						c0.08,0.27,0.17,0.53,0.3,0.78h-10.28l0.1,0.79c0.02,0.19,0.05,0.37,0.1,0.55c0.13,0.54,0.28,1.07,0.47,1.58h116.63
						c2.77,0,5,2.24,5,5c0,0.73-0.16,1.43-0.44,2.06c2.63-0.15,4.69-2.32,4.69-4.98C398.313,403.04,396.083,400.81,393.313,400.81z
						 M270.023,400.81h1.74h10.28h8.86h15.13"/>
				</g>
				<g>
					<path style="fill:none;" d="M282.043,400.81h-10.28l0.1,0.79c0.02,0.19,0.05,0.37,0.1,0.55c0.13,0.54,0.28,1.07,0.47,1.58
						h14.22C284.643,403.73,282.873,402.57,282.043,400.81z M265.773,403.73h6.66h14.22h15.13"/>
				</g>
			</g>
			<g>
				<path style="fill:#FFFFFF;" d="M306.033,400.81h-15.13h-7.52h-6.7h-4.17h-2.49 M393.313,400.81h-102.41
					c-2.29,0-4.28-1.51-4.91-3.7l-27.71-219.82c-0.51-4.09-1.6-7.85-3.23-11.16c-1.24-2.5-2.76-4.86-4.52-7.01
					c-1.8-2.2-4.02-4.26-6.6-6.13l-28.62-20.77c-7.6-5.52-16.58-8.43-25.97-8.43H71.233c-2.14,0-4.14,0.73-5.71,2
					c0.66-0.15,1.35-0.23,2.05-0.23h118.11c9.39,0,18.37,2.92,25.97,8.43l28.62,20.77c2.58,1.87,4.8,3.93,6.6,6.13
					c1.77,2.16,3.29,4.52,4.52,7.02c1.63,3.31,2.72,7.06,3.24,11.16l27.7,219.81c0.21,0.73,0.57,1.39,1.05,1.93h-115.24
					c-2.38,0-4.42-1.62-4.98-3.92l-53.62-223.11c-1.8-7.5-5.84-14.13-11.67-19.17l-22.06-19.05h-5.71l24.11,20.82
					c5.84,5.04,9.87,11.67,11.68,19.17l53.62,223.11c0.55,2.31,2.6,3.92,4.97,3.92h225.18c2.76,0,5,2.24,5,5
					c0,1.23-0.44,2.35-1.19,3.22c2.7-0.08,4.84-2.28,4.84-4.99C398.313,403.04,396.083,400.81,393.313,400.81z"/>
			</g>
			<g>
				<path style="fill:none;" d="M302.373,402.58h-15.12h-14.23h-6.66 M393.313,410.81h-225.17c-7.02,0-13.06-4.77-14.7-11.59
					l-53.62-223.11c-1.31-5.45-4.25-10.27-8.49-13.93l-26.02-22.48c-2.9-2.5-3.9-6.43-2.57-10.01c0.59-1.57,1.55-2.9,2.77-3.89
					c-2.92,0.66-5.34,2.74-6.43,5.66c-1.33,3.59-0.32,7.52,2.57,10.02l26.02,22.47c4.25,3.66,7.18,8.49,8.49,13.94L149.783,401
					c1.64,6.82,7.69,11.58,14.7,11.58h225.18c1.53,0,2.91-0.69,3.81-1.78C393.423,410.81,393.363,410.81,393.313,410.81z
					 M273.023,402.58h14.23c-1.53,0-2.93-0.67-3.87-1.77h-10.87c0.01,0.06,0.03,0.13,0.04,0.19
					C272.683,401.54,272.843,402.07,273.023,402.58z"/>
			</g>
			<g>
				<path style="fill:none;stroke:#263238;stroke-width:2.5;stroke-linecap:round;stroke-linejoin:round;stroke-miterlimit:10;" d="
					M393.318,410.806H168.141c-7.015,0-13.059-4.764-14.697-11.584l-53.62-223.107c-1.311-5.453-4.247-10.273-8.492-13.939
					l-26.021-22.472c-2.894-2.499-3.902-6.43-2.569-10.014c1.333-3.584,4.665-5.9,8.49-5.9h118.112
					c9.389,0,18.369,2.915,25.968,8.429l28.623,20.77c2.576,1.869,4.795,3.931,6.596,6.131c1.766,2.155,3.286,4.516,4.519,7.015
					c1.632,3.311,2.721,7.064,3.238,11.159l27.704,219.816c0.629,2.188,2.618,3.697,4.915,3.697h102.411c2.762,0,5,2.238,5,5
					C398.318,408.568,396.079,410.806,393.318,410.806z M73.763,133.789l24.105,20.818c5.838,5.042,9.876,11.671,11.679,19.171
					l53.62,223.108c0.555,2.308,2.601,3.92,4.975,3.92h108.54c-0.184-0.514-0.342-1.042-0.472-1.584
					c-0.043-0.179-0.076-0.36-0.1-0.543l-27.744-220.136c-0.376-2.988-1.145-5.675-2.285-7.986
					c-0.896-1.817-2.003-3.534-3.286-5.102c-1.259-1.537-2.851-3.008-4.733-4.373l-28.623-20.77
					c-5.88-4.268-12.829-6.523-20.095-6.523H73.763z M270.019,400.806h36.015"/>
			</g>
		</g>
		<g>
			
				<path style="fill:#EC644E;stroke:#263238;stroke-width:2.5;stroke-linecap:round;stroke-linejoin:round;stroke-miterlimit:10;" d="
				M191.697,358.262h-4.116c-10.232,0-19.221-7.259-21.376-17.261l-29.072-134.941c-0.582-2.7,1.135-5.359,3.834-5.941
				c2.702-0.587,5.36,1.135,5.941,3.834l29.072,134.942c1.169,5.427,6.048,9.366,11.6,9.366h4.116c2.761,0,5,2.238,5,5
				S194.458,358.262,191.697,358.262z"/>
			
				<path style="fill:#EC644E;stroke:#263238;stroke-width:2.5;stroke-linecap:round;stroke-linejoin:round;stroke-miterlimit:10;" d="
				M277.135,358.262h-4.116c-2.762,0-5-2.238-5-5s2.238-5,5-5h4.116c5.398,0,10.16-3.725,11.494-8.919l1.42-125.166
				c0.031-2.742,2.264-4.943,4.999-4.943c0.02,0,0.038,0,0.058,0c2.762,0.031,4.975,2.295,4.943,5.056l-1.427,125.715
				c-0.004,0.335-0.042,0.669-0.112,0.996C296.357,351.004,287.366,358.262,277.135,358.262z"/>
			
				<path style="fill:#EC644E;stroke:#263238;stroke-width:2.5;stroke-linecap:round;stroke-linejoin:round;stroke-miterlimit:10;" d="
				M318.144,358.262h-4.116c-2.762,0-5-2.238-5-5s2.238-5,5-5h4.116c5.458,0,10.265-3.806,11.537-9.091l11.084-125.379
				c0.243-2.75,2.661-4.777,5.421-4.54c2.751,0.243,4.783,2.67,4.54,5.421l-11.113,125.715c-0.018,0.206-0.049,0.41-0.093,0.613
				C337.365,351.004,328.375,358.262,318.144,358.262z"/>
			
				<path style="fill:#EC644E;stroke:#263238;stroke-width:2.5;stroke-linecap:round;stroke-linejoin:round;stroke-miterlimit:10;" d="
				M359.383,358.262h-4.116c-2.762,0-5-2.238-5-5s2.238-5,5-5h4.116c5.506,0,10.35-3.874,11.57-9.232l19.03-124.553
				c0.417-2.73,2.963-4.607,5.697-4.188c2.73,0.417,4.605,2.968,4.188,5.698l-19.055,124.715c-0.015,0.101-0.033,0.199-0.055,0.299
				C378.604,351.004,369.615,358.262,359.383,358.262z"/>
			
				<path style="fill:#EC644E;stroke:#263238;stroke-width:2.5;stroke-linecap:round;stroke-linejoin:round;stroke-miterlimit:10;" d="
				M390.57,358.262h-4.116c-2.762,0-5-2.238-5-5s2.238-5,5-5h4.116c5.553,0,10.431-3.939,11.6-9.366l25.783-125.667
				c0.556-2.706,3.196-4.451,5.903-3.893c2.705,0.555,4.448,3.198,3.893,5.903l-25.794,125.715
				C409.792,351.004,400.802,358.262,390.57,358.262z"/>
			
				<path style="fill:#EC644E;stroke:#263238;stroke-width:2.5;stroke-linecap:round;stroke-linejoin:round;stroke-miterlimit:10;" d="
				M237.736,358.262h-4.116c-10.23,0-19.22-7.259-21.376-17.26l-28.438-132c-0.581-2.7,1.135-5.359,3.835-5.941
				c2.701-0.585,5.359,1.135,5.941,3.835l28.437,132c1.17,5.427,6.048,9.366,11.6,9.366h4.116c2.761,0,5,2.238,5,5
				S240.498,358.262,237.736,358.262z"/>
			
				<path style="fill:#EC644E;stroke:#263238;stroke-width:2.5;stroke-linecap:round;stroke-linejoin:round;stroke-miterlimit:10;" d="
				M276.994,358.262h-4.116c-10.231,0-19.221-7.259-21.375-17.261c-0.034-0.157-0.061-0.317-0.079-0.478L236.54,211.98
				c-0.318-2.743,1.648-5.225,4.392-5.542c2.742-0.317,5.225,1.648,5.542,4.392l14.854,128.281c1.25,5.316,6.072,9.151,11.551,9.151
				h4.116c2.762,0,5,2.238,5,5S279.756,358.262,276.994,358.262z"/>
			<g>
				<path style="fill:#EC644E;" d="M433.856,219.262H292.054c-0.111,0-0.224-0.004-0.335-0.011l-185.863-12.267
					c-2.755-0.185-4.839-2.568-4.654-5.323c0.185-2.755,2.572-4.84,5.323-4.654l185.697,12.256h141.635c2.762,0,5,2.239,5,5
					S436.618,219.262,433.856,219.262z"/>
				<path style="fill:#FFFFFF;" d="M438.853,214.26c0,0.63-0.12,1.23-0.33,1.79c-0.72-1.88-2.53-3.21-4.67-3.21h-141.63
					l-185.7-12.26c-2.24-0.15-4.23,1.2-5,3.19c-0.26-0.65-0.37-1.37-0.32-2.11c0.18-2.75,2.57-4.84,5.32-4.65l185.7,12.25h141.63
					C436.623,209.26,438.853,211.5,438.853,214.26z"/>
				<path style="fill:none;stroke:#263238;stroke-width:2.5;stroke-linecap:round;stroke-linejoin:round;stroke-miterlimit:10;" d="
					M433.856,219.262H292.054c-0.111,0-0.224-0.004-0.335-0.011l-185.863-12.267c-2.755-0.185-4.839-2.568-4.654-5.323
					c0.185-2.755,2.572-4.84,5.323-4.654l185.697,12.256h141.635c2.762,0,5,2.239,5,5S436.618,219.262,433.856,219.262z"/>
			</g>
			
				<path style="fill:#EC644E;stroke:#263238;stroke-width:2.5;stroke-linecap:round;stroke-linejoin:round;stroke-miterlimit:10;" d="
				M424.852,271.134H294.049c-0.111,0-0.224-0.004-0.335-0.011l-171.248-1.133c-2.755-0.185-4.839-2.568-4.654-5.323
				c0.185-2.755,2.572-4.84,5.323-4.654l171.082,1.122h130.635c2.762,0,5,2.239,5,5
				C429.852,268.895,427.613,271.134,424.852,271.134z"/>
			
				<path style="fill:#EC644E;stroke:#263238;stroke-width:2.5;stroke-linecap:round;stroke-linejoin:round;stroke-miterlimit:10;" d="
				M418.852,314.697H294.049c-0.111,0-0.224-0.004-0.335-0.011l-161.248,0.867c-2.755-0.185-4.839-2.568-4.654-5.323
				c0.185-2.755,2.572-4.84,5.323-4.654l161.082-0.878h124.635c2.762,0,5,2.239,5,5
				C423.852,312.458,421.613,314.697,418.852,314.697z"/>
			
				<path style="fill:#EC644E;stroke:#263238;stroke-width:2.5;stroke-linecap:round;stroke-linejoin:round;stroke-miterlimit:10;" d="
				M404.034,358.262h-256.2c-2.924,0-5.294-2.238-5.294-5s2.371-5,5.294-5h256.2c2.924,0,5.294,2.238,5.294,5
				S406.959,358.262,404.034,358.262z"/>
			<g>
				<g>
					
						<path style="fill:#9ABAE3;stroke:#263238;stroke-width:2.5;stroke-linecap:round;stroke-linejoin:round;stroke-miterlimit:10;" d="
						M441.405,211.888l-2.491,13.612c-0.36,1.966-2.245,3.268-4.211,2.908l-9.635-1.763c-1.405-0.257-2.336-1.606-2.077-3.011l0,0
						c0.204-1.106-0.645-2.125-1.77-2.125l0,0c-0.994,0-1.799-0.805-1.799-1.799v-12.402c0-0.994,0.805-1.799,1.799-1.799h14.866
						C439.463,205.51,442.013,208.569,441.405,211.888z"/>
					
						<path style="fill:#9ABAE3;stroke:#263238;stroke-width:2.5;stroke-linecap:round;stroke-linejoin:round;stroke-miterlimit:10;" d="
						M407.343,338.3l4.477,0.837c1.869,0.349,3.1,2.147,2.751,4.016l-2.264,12.124c-0.576,3.086-3.27,5.323-6.409,5.323h-11.464
						c-1.873,0-3.391-1.518-3.391-3.391v-9.219c0-1.873,1.518-3.391,3.391-3.391h2.095c0.866,0,1.61-0.617,1.769-1.469l0.544-2.916
						c0.349-1.869,2.147-3.102,4.016-2.753L407.343,338.3z"/>
					
						<path style="fill:#9ABAE3;stroke:#263238;stroke-width:2.5;stroke-linecap:round;stroke-linejoin:round;stroke-miterlimit:10;" d="
						M295.243,222.84l-10.233-0.393c-2.395-0.092-4.262-2.109-4.169-4.503l0.142-3.663l0.137-3.652
						c0.09-2.396,2.105-4.264,4.501-4.173l10.082,0.385h8.981c2.396,0,4.339,1.943,4.339,4.339v7.323
						c0,2.396-1.943,4.339-4.339,4.339H295.243z"/>
					
						<path style="fill:#9ABAE3;stroke:#263238;stroke-width:2.5;stroke-linecap:round;stroke-linejoin:round;stroke-miterlimit:10;" d="
						M303.192,344.6h1.911c2.336,0,4.23,1.894,4.23,4.23v7.54c0,2.336-1.894,4.23-4.23,4.23h-23.42c-2.336,0-4.23-1.894-4.23-4.23
						v-7.54c0-2.336,1.894-4.23,4.23-4.23h1.911c0.994,0,1.799-0.806,1.799-1.799v-2.206c0-1.764,1.43-3.195,3.195-3.195h9.61
						c1.764,0,3.195,1.43,3.195,3.195v2.206C301.393,343.794,302.198,344.6,303.192,344.6z"/>
				</g>
			</g>
		</g>
		<g>
			
				<ellipse style="fill:#263238;stroke:#263238;stroke-width:2.5;stroke-linecap:round;stroke-linejoin:round;stroke-miterlimit:10;" cx="193.371" cy="438.718" rx="19.15" ry="22.606"/>
			<g>
				<ellipse style="fill:#263238;" cx="187.642" cy="438.718" rx="19.15" ry="22.606"/>
				<path style="fill:#FFFFFF;" d="M206.793,438.72c0,12.48-8.57,22.6-19.15,22.6c-0.94,0-1.86-0.08-2.77-0.24
					c9.26-1.58,16.38-10.99,16.38-22.36c0-11.38-7.12-20.79-16.38-22.37c0.91-0.16,1.83-0.24,2.77-0.24
					C198.223,416.11,206.793,426.23,206.793,438.72z"/>
				
					<ellipse style="fill:none;stroke:#263238;stroke-width:2.5;stroke-linecap:round;stroke-linejoin:round;stroke-miterlimit:10;" cx="187.642" cy="438.718" rx="19.15" ry="22.606"/>
			</g>
			
				<path style="fill:#EC644E;stroke:#263238;stroke-width:2.5;stroke-linecap:round;stroke-linejoin:round;stroke-miterlimit:10;" d="
				M175.505,399.444h24.275c0,0,0.554,46.327-12.138,46.327S175.505,399.444,175.505,399.444z"/>
			<path style="fill:#FFFFFF;" d="M191.078,432.301c0,2.234-1.538,4.046-3.436,4.046s-3.436-1.811-3.436-4.046
				s1.538-4.046,3.436-4.046S191.078,430.067,191.078,432.301z"/>
		</g>
		<g>
			
				<ellipse style="fill:#263238;stroke:#263238;stroke-width:2.5;stroke-linecap:round;stroke-linejoin:round;stroke-miterlimit:10;" cx="308.913" cy="438.718" rx="19.149" ry="22.606"/>
			<g>
				<ellipse style="fill:#263238;" cx="303.184" cy="438.718" rx="19.149" ry="22.606"/>
				<path style="fill:#FFFFFF;" d="M322.334,438.72c0,12.48-8.57,22.6-19.15,22.6c-0.94,0-1.86-0.08-2.77-0.24
					c9.26-1.58,16.38-10.99,16.38-22.36c0-11.38-7.12-20.79-16.38-22.37c0.91-0.16,1.83-0.24,2.77-0.24
					C313.764,416.11,322.334,426.23,322.334,438.72z"/>
				
					<ellipse style="fill:none;stroke:#263238;stroke-width:2.5;stroke-linecap:round;stroke-linejoin:round;stroke-miterlimit:10;" cx="303.184" cy="438.718" rx="19.149" ry="22.606"/>
			</g>
			
				<path style="fill:#EC644E;stroke:#263238;stroke-width:2.5;stroke-linecap:round;stroke-linejoin:round;stroke-miterlimit:10;" d="
				M291.046,399.444h24.275c0,0,0.554,46.327-12.138,46.327S291.046,399.444,291.046,399.444z"/>
			<path style="fill:#FFFFFF;" d="M306.62,432.301c0,2.234-1.539,4.046-3.436,4.046s-3.436-1.811-3.436-4.046
				s1.539-4.046,3.436-4.046S306.62,430.067,306.62,432.301z"/>
		</g>
		<g>
			
				<ellipse style="fill:#263238;stroke:#263238;stroke-width:2.5;stroke-linecap:round;stroke-linejoin:round;stroke-miterlimit:10;" cx="379.367" cy="438.718" rx="16.658" ry="22.606"/>
			<g>
				<ellipse style="fill:#263238;" cx="374.383" cy="438.718" rx="16.658" ry="22.606"/>
				<path style="fill:#FFFFFF;" d="M391.042,438.72c0,12.48-7.455,22.6-16.658,22.6c-0.818,0-1.618-0.08-2.41-0.24
					c8.055-1.58,14.249-10.99,14.249-22.36c0-11.38-6.193-20.79-14.249-22.37c0.792-0.16,1.592-0.24,2.41-0.24
					C383.587,416.11,391.042,426.23,391.042,438.72z"/>
				
					<ellipse style="fill:none;stroke:#263238;stroke-width:2.5;stroke-linecap:round;stroke-linejoin:round;stroke-miterlimit:10;" cx="374.383" cy="438.718" rx="16.658" ry="22.606"/>
			</g>
			
				<path style="fill:#EC644E;stroke:#263238;stroke-width:2.5;stroke-linecap:round;stroke-linejoin:round;stroke-miterlimit:10;" d="
				M361.301,399.444h24.276c0,0,0.554,46.327-12.138,46.327C360.747,445.771,361.301,399.444,361.301,399.444z"/>
			<path style="fill:#FFFFFF;" d="M376.875,432.301c0,2.234-1.539,4.046-3.436,4.046c-1.898,0-3.436-1.811-3.436-4.046
				s1.538-4.046,3.436-4.046C375.337,428.255,376.875,430.067,376.875,432.301z"/>
		</g>
		
			<path style="fill:#9ABAE3;stroke:#263238;stroke-width:2.5;stroke-linecap:round;stroke-linejoin:round;stroke-miterlimit:10;" d="
			M181.243,127.31v3.19c0,4.02-3.26,7.28-7.27,7.28h-76.16c-2.79,0-5.2-1.57-6.42-3.87h3.33c2.92,0,5.29-2.24,5.29-5
			c0-2.76-2.37-5-5.29-5h-3.33c1.21-2.3,3.63-3.87,6.42-3.87h76.16C177.983,120.04,181.243,123.3,181.243,127.31z"/>
	</g>
</g>
<g id="Sign">
	<g>
		
			<rect x="103.008" y="34.664" style="fill:#9ABAE3;stroke:#263238;stroke-width:2.5;stroke-linecap:round;stroke-linejoin:round;stroke-miterlimit:10;" width="293.985" height="57.197"/>
		<g>
			
				<rect x="129.133" y="1.265" style="fill:#9ABAE3;stroke:#263238;stroke-width:2.5;stroke-linecap:round;stroke-linejoin:round;stroke-miterlimit:10;" width="12.858" height="33.4"/>
			
				<rect x="358.009" y="1.265" style="fill:#9ABAE3;stroke:#263238;stroke-width:2.5;stroke-linecap:round;stroke-linejoin:round;stroke-miterlimit:10;" width="12.858" height="33.4"/>
		</g>
		<g>
			<path style="fill:#FFFFFF;" d="M147.385,59.173c-0.606-0.394-1.232-0.745-1.879-1.051c-0.546-0.263-1.157-0.509-1.833-0.739
				c-0.678-0.23-1.339-0.345-1.985-0.345c-0.525,0-0.945,0.088-1.258,0.263c-0.313,0.176-0.47,0.471-0.47,0.887
				c0,0.307,0.091,0.558,0.273,0.756c0.182,0.197,0.444,0.378,0.788,0.542c0.343,0.164,0.762,0.323,1.258,0.476
				c0.495,0.153,1.055,0.34,1.681,0.558c0.99,0.328,1.884,0.69,2.682,1.084c0.798,0.394,1.48,0.86,2.046,1.396
				c0.565,0.537,1,1.188,1.303,1.955c0.303,0.767,0.454,1.698,0.454,2.792c0,1.402-0.238,2.579-0.712,3.532
				c-0.475,0.953-1.101,1.714-1.879,2.283c-0.777,0.57-1.657,0.98-2.636,1.232c-0.98,0.252-1.965,0.378-2.954,0.378
				c-0.788,0-1.596-0.066-2.424-0.197c-0.829-0.131-1.652-0.317-2.47-0.558c-0.818-0.241-1.606-0.526-2.364-0.854
				c-0.758-0.328-1.46-0.701-2.106-1.117l2.546-5.618c0.707,0.482,1.444,0.909,2.212,1.281c0.646,0.328,1.379,0.624,2.197,0.887
				c0.818,0.263,1.652,0.394,2.5,0.394c0.647,0,1.096-0.093,1.349-0.279c0.252-0.186,0.379-0.432,0.379-0.739
				c0-0.328-0.126-0.608-0.379-0.838c-0.253-0.23-0.602-0.432-1.046-0.608c-0.444-0.175-0.954-0.35-1.53-0.525
				c-0.576-0.175-1.188-0.383-1.834-0.624c-0.95-0.35-1.768-0.728-2.455-1.133c-0.687-0.405-1.253-0.865-1.697-1.38
				c-0.445-0.515-0.773-1.101-0.985-1.758c-0.212-0.657-0.318-1.413-0.318-2.267c0-1.292,0.217-2.431,0.652-3.416
				c0.434-0.986,1.025-1.807,1.773-2.464c0.747-0.657,1.601-1.155,2.561-1.495c0.959-0.339,1.975-0.509,3.046-0.509
				c0.788,0,1.556,0.082,2.303,0.247c0.747,0.164,1.469,0.373,2.167,0.624c0.697,0.252,1.348,0.526,1.954,0.821
				c0.606,0.296,1.152,0.575,1.636,0.838L147.385,59.173z"/>
			<path style="fill:#FFFFFF;" d="M164.567,69.389c0.687,0,1.273-0.164,1.758-0.493c0.485-0.328,0.879-0.761,1.182-1.298
				c0.303-0.536,0.525-1.155,0.667-1.856c0.141-0.701,0.213-1.434,0.213-2.201V51.551h5.909v11.991c0,1.621-0.192,3.137-0.576,4.55
				c-0.384,1.413-0.98,2.634-1.788,3.663c-0.808,1.03-1.823,1.84-3.045,2.431c-1.223,0.591-2.662,0.887-4.319,0.887
				c-1.717,0-3.187-0.312-4.409-0.936c-1.223-0.624-2.228-1.462-3.016-2.513c-0.788-1.051-1.364-2.272-1.727-3.663
				c-0.363-1.391-0.545-2.863-0.545-4.419V51.551h5.909v11.991c0,0.767,0.071,1.506,0.212,2.218
				c0.141,0.712,0.364,1.336,0.667,1.872c0.303,0.537,0.692,0.964,1.167,1.281C163.299,69.231,163.88,69.389,164.567,69.389z"/>
			<path style="fill:#FFFFFF;" d="M179.81,74.876V51.551h9.274c1.05,0,2.02,0.236,2.909,0.707c0.889,0.471,1.652,1.084,2.288,1.84
				c0.637,0.756,1.137,1.621,1.5,2.595c0.364,0.975,0.546,1.955,0.546,2.94c0,1.03-0.172,2.031-0.515,3.006
				c-0.344,0.975-0.824,1.84-1.44,2.595c-0.617,0.756-1.364,1.358-2.242,1.807c-0.879,0.449-1.844,0.674-2.894,0.674h-3.516v7.161
				H179.81z M185.719,62.129h3.122c0.363,0,0.702-0.181,1.015-0.542c0.313-0.361,0.47-1.013,0.47-1.955
				c0-0.963-0.182-1.62-0.546-1.971c-0.364-0.35-0.727-0.526-1.091-0.526h-2.97V62.129z"/>
			<path style="fill:#FFFFFF;" d="M216.145,69.291v5.585h-15.334V51.551h15.062v5.585h-9.152v3.285h7.818v5.191h-7.818v3.679
				H216.145z"/>
			<path style="fill:#FFFFFF;" d="M221.024,74.876V51.551h9.88c1.05,0,2.02,0.236,2.909,0.707c0.889,0.471,1.652,1.084,2.288,1.84
				c0.637,0.756,1.137,1.621,1.5,2.595c0.364,0.975,0.546,1.955,0.546,2.94c0,1.358-0.272,2.623-0.818,3.794
				c-0.546,1.172-1.303,2.13-2.273,2.875l4.545,8.574h-6.667l-3.788-7.161h-2.212v7.161H221.024z M226.933,62.129h3.728
				c0.363,0,0.702-0.219,1.015-0.657c0.313-0.438,0.47-1.051,0.47-1.84c0-0.81-0.182-1.429-0.546-1.856
				c-0.364-0.427-0.727-0.641-1.091-0.641h-3.576V62.129z"/>
			<path style="fill:#FFFFFF;" d="M259.874,74.876V62.589l-3.606,8.64h-3.152l-3.606-8.64v12.287h-5.91V51.551h6.455l4.636,10.972
				l4.667-10.972h6.425v23.325H259.874z"/>
			<path style="fill:#FFFFFF;" d="M277.177,51.551h5.394l7.455,23.325h-6l-1.303-4.566h-5.728l-1.273,4.566h-6.03L277.177,51.551z
				 M281.783,66.039l-1.909-7.227l-2,7.227H281.783z"/>
			<path style="fill:#FFFFFF;" d="M293.936,74.876V51.551h9.88c1.05,0,2.02,0.236,2.909,0.707c0.889,0.471,1.652,1.084,2.288,1.84
				c0.637,0.756,1.137,1.621,1.5,2.595c0.364,0.975,0.546,1.955,0.546,2.94c0,1.358-0.273,2.623-0.818,3.794
				c-0.546,1.172-1.303,2.13-2.273,2.875l4.545,8.574h-6.667l-3.788-7.161h-2.212v7.161H293.936z M299.845,62.129h3.728
				c0.363,0,0.702-0.219,1.015-0.657c0.313-0.438,0.47-1.051,0.47-1.84c0-0.81-0.182-1.429-0.546-1.856
				c-0.364-0.427-0.727-0.641-1.091-0.641h-3.576V62.129z"/>
			<path style="fill:#FFFFFF;" d="M316.512,74.876V51.551h5.91v8.87l6.546-8.87h6.667l-7.818,10.447l8.364,12.878h-6.788
				l-5.334-8.574l-1.636,1.84v6.734H316.512z"/>
			<path style="fill:#FFFFFF;" d="M354.878,69.291v5.585h-15.334V51.551h15.062v5.585h-9.152v3.285h7.819v5.191h-7.819v3.679
				H354.878z"/>
			<path style="fill:#FFFFFF;" d="M376.515,57.136h-6.182v17.74h-5.909v-17.74h-6.212v-5.585h18.304V57.136z"/>
		</g>
		<g>
			
				<line style="fill:none;stroke:#FFFFFF;stroke-width:2.5;stroke-miterlimit:10;" x1="104.332" y1="44.084" x2="395.668" y2="44.084"/>
			
				<line style="fill:none;stroke:#FFFFFF;stroke-width:2.5;stroke-miterlimit:10;" x1="104.332" y1="82.442" x2="395.668" y2="82.442"/>
		</g>
		
			<line style="fill:none;stroke:#263238;stroke-width:2.5;stroke-linecap:round;stroke-linejoin:round;stroke-miterlimit:10;" x1="112.326" y1="91.861" x2="112.326" y2="34.664"/>
	</g>
</g>
</svg>
